<mxfile host="Electron" agent="Mozilla/5.0 (X11; Linux x86_64) AppleWebKit/537.36 (KHTML, like Gecko) draw.io/28.2.5 Chrome/138.0.7204.251 Electron/37.6.1 Safari/537.36" version="28.2.5">
  <diagram name="第 1 页" id="A2wYnKDMZFF023bxGnZ8">
    <mxGraphModel dx="599" dy="788" grid="1" gridSize="10" guides="1" tooltips="1" connect="1" arrows="1" fold="1" page="1" pageScale="1" pageWidth="827" pageHeight="1169" math="0" shadow="0">
      <root>
        <mxCell id="0" />
        <mxCell id="1" parent="0" />
        <mxCell id="lc5mf7nCTQjh2SExQ85K-13" value="" style="rounded=0;whiteSpace=wrap;html=1;" parent="1" vertex="1">
          <mxGeometry x="870" y="320" width="1130" height="640" as="geometry" />
        </mxCell>
        <mxCell id="mEVcy1A5f8fxIJjsYzMS-37" value="dubbo&lt;div&gt;&lt;br&gt;&lt;/div&gt;" style="shape=module;align=left;spacingLeft=20;align=center;verticalAlign=top;whiteSpace=wrap;html=1;fontSize=20;fillColor=#fff2cc;strokeColor=#d6b656;" parent="1" vertex="1">
          <mxGeometry x="1690" y="360" width="160" height="50" as="geometry" />
        </mxCell>
        <mxCell id="dmNFYRCC_EVl9eXUpVEG-11" value="spring&lt;div&gt;&lt;br&gt;&lt;/div&gt;" style="shape=module;align=left;spacingLeft=20;align=center;verticalAlign=top;whiteSpace=wrap;html=1;fontSize=20;fillColor=#ffcc99;strokeColor=#36393d;" parent="1" vertex="1">
          <mxGeometry x="1494" y="360" width="160" height="50" as="geometry" />
        </mxCell>
        <mxCell id="3g7tP2FcB71UHt030LkG-1" value="@EnableDubbo" style="html=1;whiteSpace=wrap;fontSize=20;verticalAlign=middle;align=center;fontStyle=0;fillColor=#fff2cc;strokeColor=#d6b656;" parent="1" vertex="1">
          <mxGeometry x="1330" y="830" width="180" height="51" as="geometry" />
        </mxCell>
        <mxCell id="3g7tP2FcB71UHt030LkG-2" value="@EnableDubboConfig" style="html=1;whiteSpace=wrap;fontSize=20;verticalAlign=middle;align=center;fontStyle=0;fillColor=#fff2cc;strokeColor=#d6b656;" parent="1" vertex="1">
          <mxGeometry x="1040" y="650" width="230" height="51" as="geometry" />
        </mxCell>
        <mxCell id="3g7tP2FcB71UHt030LkG-3" value="@DubboComponentScan" style="html=1;whiteSpace=wrap;fontSize=20;verticalAlign=middle;align=center;fontStyle=0;fillColor=#fff2cc;strokeColor=#d6b656;" parent="1" vertex="1">
          <mxGeometry x="1565" y="650" width="240" height="51" as="geometry" />
        </mxCell>
        <mxCell id="3g7tP2FcB71UHt030LkG-5" value="Extends" style="endArrow=block;endSize=16;endFill=0;html=1;rounded=0;exitX=0.5;exitY=0;exitDx=0;exitDy=0;entryX=0.5;entryY=1;entryDx=0;entryDy=0;" parent="1" source="3g7tP2FcB71UHt030LkG-1" target="3g7tP2FcB71UHt030LkG-3" edge="1">
          <mxGeometry width="160" relative="1" as="geometry">
            <mxPoint x="1600" y="610" as="sourcePoint" />
            <mxPoint x="1760" y="610" as="targetPoint" />
          </mxGeometry>
        </mxCell>
        <mxCell id="3g7tP2FcB71UHt030LkG-6" value="Extends" style="endArrow=block;endSize=16;endFill=0;html=1;rounded=0;exitX=0.5;exitY=0;exitDx=0;exitDy=0;entryX=0.5;entryY=1;entryDx=0;entryDy=0;" parent="1" source="3g7tP2FcB71UHt030LkG-1" target="3g7tP2FcB71UHt030LkG-2" edge="1">
          <mxGeometry width="160" relative="1" as="geometry">
            <mxPoint x="1510" y="630" as="sourcePoint" />
            <mxPoint x="1670" y="630" as="targetPoint" />
          </mxGeometry>
        </mxCell>
        <mxCell id="Xmo2yiAXzxh61W0THU24-1" value="@Import({DubboConfigConfigurationRegistrar.class})" style="html=1;whiteSpace=wrap;fontSize=20;verticalAlign=middle;align=center;fontStyle=0;fillColor=#ffcc99;strokeColor=#36393d;" parent="1" vertex="1">
          <mxGeometry x="895" y="470" width="520" height="51" as="geometry" />
        </mxCell>
        <mxCell id="Xmo2yiAXzxh61W0THU24-2" value="Extends" style="endArrow=block;endSize=16;endFill=0;html=1;rounded=0;exitX=0.5;exitY=0;exitDx=0;exitDy=0;entryX=0.5;entryY=1;entryDx=0;entryDy=0;" parent="1" source="3g7tP2FcB71UHt030LkG-2" target="Xmo2yiAXzxh61W0THU24-1" edge="1">
          <mxGeometry width="160" relative="1" as="geometry">
            <mxPoint x="1060" y="560" as="sourcePoint" />
            <mxPoint x="1220" y="560" as="targetPoint" />
          </mxGeometry>
        </mxCell>
        <mxCell id="Xmo2yiAXzxh61W0THU24-3" value="@Import({DubboComponentScanRegistrar.class})" style="html=1;whiteSpace=wrap;fontSize=20;verticalAlign=middle;align=center;fontStyle=0;fillColor=#ffcc99;strokeColor=#36393d;" parent="1" vertex="1">
          <mxGeometry x="1450" y="470" width="470" height="51" as="geometry" />
        </mxCell>
        <mxCell id="Xmo2yiAXzxh61W0THU24-4" value="Extends" style="endArrow=block;endSize=16;endFill=0;html=1;rounded=0;exitX=0.5;exitY=0;exitDx=0;exitDy=0;entryX=0.5;entryY=1;entryDx=0;entryDy=0;" parent="1" source="3g7tP2FcB71UHt030LkG-3" target="Xmo2yiAXzxh61W0THU24-3" edge="1">
          <mxGeometry width="160" relative="1" as="geometry">
            <mxPoint x="1650" y="610" as="sourcePoint" />
            <mxPoint x="1810" y="610" as="targetPoint" />
          </mxGeometry>
        </mxCell>
      </root>
    </mxGraphModel>
  </diagram>
</mxfile>
